#!OML:ASF H:\Punching\Project 1\Capture day 1\Session 1\female.ASF
:FULLY-SPECIFIED
:DEGREES
1478
root -1.51528 14.5049 5.34428 9.21284 26.5865 -1.40416
lowerback 5.52886 0.781874 3.51112
upperback -3.95909 1.44668 1.17722
thorax -7.19861 0.573667 -0.904421
lowerneck -8.96658 -4.06509 4.10476
upperneck 29.9301 -8.1146 5.63999
head 11.3127 -2.43282 0.398424
rclavicle 3.30728e-014 -2.38542e-015
rhumerus 11.9468 15.9602 -72.2967
rradius 138.204
rwrist -47.1652
rhand -16.0789 -7.56827
rfingers 7.12502
rthumb 10.1241 -37.3047
lclavicle 3.30728e-014 -2.38542e-015
lhumerus -0.770939 -37.6292 84.5302
lradius 143.144
lwrist 37.5004
lhand -12.0798 27.752
lfingers 7.12502
lthumb 13.9801 57.2619
rfemur -39.4881 -8.45692 12.7535
rtibia 55.8196
rfoot -18.8293 -14.228
rtoes -9.04972
lfemur -16.6145 -13.6652 6.33338
ltibia 42.2188
lfoot -18.7968 -14.3256
ltoes -31.8226
1479
root -1.52977 14.5139 5.35457 9.20324 28.1508 -1.37877
lowerback 5.4926 1.21842 3.64903
upperback -4.01119 2.05865 1.36008
thorax -7.21166 0.873115 -0.859413
lowerneck -8.79521 -4.8907 3.10694
upperneck 29.3584 -9.19466 6.27133
head 11.1517 -2.97934 0.669594
rclavicle 6.28657e-014 1.03368e-014
rhumerus 11.8256 14.4955 -71.4466
rradius 138.61
rwrist -47.6717
rhand -16.1371 -7.68255
rfingers 7.12502
rthumb 10.0679 -37.4217
lclavicle 6.28657e-014 1.03368e-014
lhumerus -0.704749 -38.3407 84.466
lradius 143.088
lwrist 36.112
lhand -12.1161 27.5153
lfingers 7.12502
lthumb 13.9451 57.0277
rfemur -38.9352 -9.4438 12.7973
rtibia 55.7579
rfoot -19.0316 -14.639
rtoes -8.9843
lfemur -17.4 -14.2759 6.63729
ltibia 42.1461
lfoot -18.6933 -14.2582
ltoes -31.6841
1480
root -1.54257 14.5212 5.36268 9.22724 29.4844 -1.30987
lowerback 5.46457 1.65731 3.68681
upperback -4.06482 2.66587 1.54381
thorax -7.23653 1.17514 -0.756558
lowerneck -8.62901 -5.63421 2.17123
upperneck 28.8532 -10.15 6.80487
head 11.0269 -3.47172 0.907431
rclavicle 2.64881e-014 1.43125e-014
rhumerus 11.7231 13.1223 -70.6712
rradius 138.94
rwrist -48.1573
rhand -16.2299 -7.81847
rfingers 7.12502
rthumb 9.97838 -37.562
lclavicle 2.64881e-014 1.43125e-014
lhumerus -0.6582 -38.8824 84.46
lradius 142.927
lwrist 34.7105
lhand -12.1742 27.2958
lfingers 7.12502
lthumb 13.8891 56.812
rfemur -38.4896 -10.2354 12.7802
rtibia 55.7311
rfoot -19.1997 -15.0367
rtoes -8.90001
lfemur -18.1061 -14.8352 6.84436
ltibia 42.1245
lfoot -18.5939 -14.1121
ltoes -31.6213
1481
root -1.55311 14.527 5.36861 9.26656 30.5767 -1.21526
lowerback 5.45346 2.09612 3.66213
upperback -4.11744 3.2681 1.71867
thorax -7.27625 1.4774 -0.627958
lowerneck -8.46986 -6.28861 1.31864
upperneck 28.4235 -10.9759 7.23647
head 10.9337 -3.90505 1.10804
rclavicle 4.47266e-014 -3.57812e-014
rhumerus 11.6346 11.8561 -70.0048
rradius 139.189
rwrist -48.5972
rhand -16.3202 -7.96545
rfingers 7.12502
rthumb 9.89123 -37.7131
lclavicle 4.47266e-014 -3.57812e-014
lhumerus -0.667215 -39.2979 84.5353
lradius 142.689
lwrist 33.264
lhand -12.2765 27.1276
lfingers 7.12502
lthumb 13.7906 56.6506
rfemur -38.1328 -10.8309 12.7198
rtibia 55.7274
rfoot -19.329 -15.4105
rtoes -8.80182
lfemur -18.7065 -15.354 6.96989
ltibia 42.1459
lfoot -18.5262 -13.8948
ltoes -31.6776
1482
root -1.56121 14.5311 5.37215 9.29087 31.4229 -1.13749
lowerback 5.48158 2.52589 3.63135
upperback -4.16865 3.8594 1.88365
thorax -7.34169 1.77378 -0.507101
lowerneck -8.34137 -6.84511 0.562482
upperneck 28.0833 -11.6658 7.56515
head 10.8746 -4.27341 1.26952
rclavicle -5.22307e-014 2.38542e-015
rhumerus 11.5589 10.7464 -69.4887
rradius 139.356
rwrist -48.9455
rhand -16.4006 -8.09721
rfingers 7.12502
rthumb 9.81372 -37.8485
lclavicle -5.22307e-014 2.38542e-015
lhumerus -0.749192 -39.6083 84.6918
lradius 142.396
lwrist 31.7606
lhand -12.4351 27.043
lfingers 7.12502
lthumb 13.6377 56.5762
rfemur -37.851 -11.2282 12.6579
rtibia 55.7342
rfoot -19.4169 -15.7578
rtoes -8.69697
lfemur -19.1797 -15.8305 7.0549
ltibia 42.1989
lfoot -18.4969 -13.6319
ltoes -31.8338
